<svg width="54" height="73" viewBox="0 0 54 73" fill="none" xmlns="http://www.w3.org/2000/svg">
<path fill-rule="evenodd" clip-rule="evenodd" d="M0.27414 46.4551V12.787C0.27414 9.42277 1.60959 6.19661 3.98674 3.81772C6.3639 1.43893 9.58778 0.102539 12.9496 0.102539C16.3114 0.102539 19.5353 1.43893 21.9124 3.81772C24.2896 6.19661 25.625 9.42277 25.625 12.787V17.4015L25.7935 17.2328C28.1471 14.8956 31.3193 13.5702 34.6348 13.5387C37.9504 13.5074 41.1473 14.7723 43.5448 17.0642C44.7475 18.2236 45.7056 19.6129 46.362 21.1498C47.0182 22.6868 47.3593 24.34 47.3653 26.0113C47.3787 27.7332 47.051 29.4408 46.4017 31.0354C45.7527 32.6299 44.7944 34.0803 43.5825 35.3027L39.628 39.2635C39.5618 39.3293 39.5092 39.4077 39.4734 39.4939C39.4377 39.5803 39.4191 39.6726 39.4191 39.766C39.4191 39.8593 39.4377 39.9519 39.4734 40.0383C39.5092 40.1242 39.5618 40.2026 39.628 40.2684L49.6829 50.3444C53.9919 54.6562 54.7483 61.4148 51.4882 66.4252C50.4755 67.9806 49.1297 69.2914 47.5481 70.2619C45.9666 71.2326 44.189 71.8393 42.3445 72.0379C40.4591 72.2544 38.5491 72.0479 36.7534 71.4337C34.9575 70.8195 33.3212 69.8125 31.9629 68.4865C31.7105 68.2402 31.4762 68.0269 31.2421 67.8139C31.205 67.78 31.1678 67.7462 31.1306 67.7122C30.8073 67.4198 30.4429 67.0861 30.0164 66.68C29.2219 65.9107 28.6306 65.2659 28.3679 64.9793C28.3508 64.9608 28.3352 64.9437 28.321 64.9282L28.2694 64.8699C27.8533 64.4156 27.1862 63.7103 26.2852 62.7706C26.209 62.6829 26.1093 62.6186 25.9979 62.5856C25.8863 62.5529 25.7677 62.5526 25.656 62.5849C25.534 62.6107 25.4216 62.6705 25.332 62.7577C25.2425 62.8446 25.1797 62.9555 25.1504 63.0769L25.1299 63.1457C25.0893 63.2836 25.0722 63.3388 25.0617 63.3727C25.0588 63.3819 25.0564 63.3896 25.0542 63.3969C24.2556 65.9804 22.649 68.239 20.4711 69.8401C18.2931 71.4409 15.6589 72.2993 12.9565 72.2892L12.96 72.2822C11.274 72.2805 9.60614 71.9364 8.05684 71.2708C6.50779 70.6055 5.10958 69.6325 3.9468 68.4108C1.59346 65.999 0.275629 62.7621 0.27414 59.3915V46.4629V46.4626C0.274139 46.4601 0.274139 46.4576 0.27414 46.4551ZM17.6006 25.4377C17.5949 25.3507 17.592 25.2632 17.592 25.1754V12.787C17.592 11.5548 17.1028 10.3731 16.2323 9.50196C15.3617 8.63081 14.1808 8.14124 12.9496 8.14124C11.7183 8.14124 10.5374 8.63081 9.66691 9.50196C8.79638 10.3731 8.30716 11.5548 8.30716 12.787V34.7448L17.6006 25.4377ZM32.9813 21.9132C33.5449 21.6811 34.1493 21.563 34.7586 21.5652C35.9484 21.5632 37.0935 22.019 37.9566 22.8385C38.3913 23.2583 38.7369 23.7616 38.973 24.3179C39.2095 24.874 39.3315 25.4723 39.3323 26.0768C39.339 26.7313 39.2162 27.3807 38.9708 27.9872C38.7252 28.594 38.3618 29.1458 37.9016 29.6108L33.9436 33.5718C32.3067 35.2136 31.3876 37.438 31.3876 39.7573C31.3876 42.0768 32.3067 44.3012 33.9436 45.9429L44.0055 56.0293C44.7979 56.7932 45.3047 57.8061 45.4419 58.8987C45.5788 59.9913 45.3377 61.0978 44.7587 62.0342C44.3945 62.5963 43.9085 63.0695 43.3369 63.4183C42.7658 63.7674 42.1235 63.9833 41.4574 64.0509C40.7511 64.1313 40.0358 64.0543 39.3625 63.825C38.6895 63.5963 38.0757 63.2207 37.5647 62.7259C37.1898 62.3577 36.8184 62.0171 36.5329 61.7589C36.4826 61.7135 36.4321 61.6681 36.381 61.6222C36.142 61.4074 35.8913 61.1822 35.608 60.8987C34.9511 60.2723 34.4663 59.7458 34.2634 59.5221L34.1877 59.4397C33.727 58.9407 33.0426 58.211 32.0934 57.22C31.037 56.1167 29.7095 55.3108 28.2436 54.8831C26.7779 54.4553 25.2254 54.4206 23.7421 54.7828C22.2588 55.145 20.8965 55.8913 19.7923 56.9464C18.6883 58.0017 17.8808 59.3292 17.4511 60.7954L17.3926 60.9915C17.1023 61.9404 16.5143 62.7701 15.716 63.358C14.9177 63.9461 13.9514 64.2616 12.96 64.2572C12.3529 64.2505 11.7536 64.1211 11.1979 63.8761C10.6424 63.6313 10.1423 63.2763 9.72745 62.8326C8.83161 61.9104 8.32651 60.6772 8.31758 59.3915V46.4626C8.31708 46.3449 8.33991 46.2287 8.38481 46.12C8.42946 46.0112 8.49546 45.9124 8.57882 45.8295L31.4744 22.9177C31.9058 22.4867 32.4176 22.1454 32.9813 21.9132Z" fill="#ED395E"/>
<path fill-rule="evenodd" clip-rule="evenodd" d="M25.6386 17.4324C25.6203 15.7094 25.6111 13.9887 25.6111 12.2705L17.5987 19.9857C17.5872 21.8097 17.5815 23.6334 17.5815 25.4574L25.6386 17.4324ZM8.31409 34.8347V29.6729L0.284546 37.395V46.6313L8.31409 34.8347Z" fill="#C62344"/>
</svg>
