<svg width="1959" height="459" viewBox="0 0 1959 459" fill="none" xmlns="http://www.w3.org/2000/svg">
<path d="M553.41 351.969H505.414L447.177 279.227V351.969H405.9V127.656H447.177V262.243L502.214 191.745H551.49L487.175 270.896L553.41 351.969Z" fill="white"/>
<path d="M691.842 332.093C675.417 348.329 655.365 356.447 631.687 356.447C608.009 356.447 587.957 348.329 571.53 332.093C555.318 315.644 547.212 295.563 547.212 271.85C547.212 248.136 555.318 228.163 571.53 211.926C587.957 195.476 608.009 187.252 631.687 187.252C655.365 187.252 675.417 195.476 691.842 211.926C708.269 228.163 716.481 248.136 716.481 271.85C716.481 295.563 708.269 315.644 691.842 332.093ZM600.648 303.574C608.969 311.905 619.315 316.071 631.687 316.071C644.059 316.071 654.405 311.905 662.725 303.574C671.044 295.243 675.204 284.667 675.204 271.85C675.204 259.032 671.044 248.458 662.725 240.125C654.405 231.794 644.059 227.628 631.687 227.628C619.315 227.628 608.969 231.794 600.648 240.125C592.542 248.458 588.489 259.032 588.489 271.85C588.489 284.667 592.542 295.243 600.648 303.574Z" fill="white"/>
<path d="M827.559 187.259C845.051 187.259 859.449 193.134 870.755 204.884C882.275 216.633 888.035 232.869 888.035 253.592V351.969H846.758V258.719C846.758 248.037 843.878 239.919 838.118 234.365C832.358 228.597 824.679 225.712 815.079 225.712C804.414 225.712 795.88 229.023 789.481 235.647C783.082 242.27 779.882 252.202 779.882 265.448V351.969H738.605V127.656H779.882V209.69C789.907 194.736 805.8 187.259 827.559 187.259Z" fill="white"/>
<path d="M1052.68 332.093C1036.25 348.329 1016.2 356.447 992.523 356.447C968.845 356.447 948.793 348.329 932.367 332.093C916.154 315.644 908.048 295.563 908.048 271.85C908.048 248.136 916.154 228.163 932.367 211.926C948.793 195.476 968.845 187.252 992.523 187.252C1016.2 187.252 1036.25 195.476 1052.68 211.926C1069.11 228.163 1077.32 248.136 1077.32 271.85C1077.32 295.563 1069.11 315.644 1052.68 332.093ZM961.485 303.574C969.804 311.905 980.151 316.071 992.523 316.071C1004.9 316.071 1015.24 311.905 1023.56 303.574C1031.88 295.243 1036.04 284.667 1036.04 271.85C1036.04 259.032 1031.88 248.458 1023.56 240.125C1015.24 231.794 1004.9 227.628 992.523 227.628C980.151 227.628 969.804 231.794 961.485 240.125C953.379 248.458 949.326 259.032 949.326 271.85C949.326 284.667 953.379 295.243 961.485 303.574Z" fill="white"/>
<path d="M1140.71 219.303C1144.54 209.049 1150.84 201.358 1159.58 196.231C1168.54 191.104 1178.46 188.541 1189.34 188.541V234.685C1176.76 233.19 1165.45 235.753 1155.42 242.376C1145.61 248.998 1140.71 260 1140.71 275.381V351.969H1099.43V191.745H1140.71V219.303Z" fill="white"/>
<path d="M1290.01 231.476H1253.85V298.129C1253.85 303.683 1255.24 307.742 1258.01 310.306C1260.79 312.869 1264.84 314.365 1270.17 314.792C1275.5 315.005 1282.12 314.899 1290.01 314.472V351.964C1261.64 355.169 1241.59 352.498 1229.85 343.953C1218.34 335.407 1212.58 320.132 1212.58 298.129V231.476V191.741V159.376L1253.85 146.878V191.741H1290.01V231.476Z" fill="white"/>
<path d="M134.157 287.811C129.872 287.811 125.762 286.105 122.732 283.071C119.702 280.038 118 275.922 118 271.63V136.063C118 122.52 123.372 109.532 132.934 99.9559C142.496 90.3798 155.465 85 168.988 85C182.511 85 195.48 90.3798 205.042 99.9559C214.604 109.532 219.976 122.52 219.976 136.063V185.934C219.976 190.226 218.274 194.341 215.244 197.376C212.214 200.41 208.104 202.115 203.819 202.115C199.534 202.115 195.425 200.41 192.395 197.376C189.365 194.341 187.663 190.226 187.663 185.934V136.063C187.663 131.103 185.695 126.346 182.193 122.839C178.691 119.331 173.941 117.361 168.988 117.361C164.035 117.361 159.285 119.331 155.783 122.839C152.281 126.346 150.314 131.103 150.314 136.063V271.63C150.314 275.922 148.611 280.038 145.581 283.071C142.551 286.105 138.442 287.811 134.157 287.811Z" fill="white"/>
<path d="M169.03 375.571C162.248 375.564 155.538 374.179 149.307 371.5C143.075 368.821 137.45 364.904 132.774 359.986C123.307 350.277 118.006 337.246 118 323.677V271.631C117.998 266.897 118.936 262.211 120.76 257.844C122.584 253.478 125.257 249.518 128.624 246.196L220.654 153.962C230.121 144.554 242.882 139.218 256.22 139.091C269.556 138.964 282.415 144.056 292.059 153.283C296.898 157.95 300.752 163.544 303.393 169.731C306.032 175.918 307.404 182.573 307.428 189.301C307.482 196.233 306.165 203.107 303.553 209.526C300.942 215.946 297.086 221.784 292.212 226.705L276.304 242.65C276.038 242.915 275.827 243.23 275.683 243.577C275.539 243.924 275.464 244.297 275.464 244.673C275.464 245.048 275.539 245.421 275.683 245.768C275.827 246.115 276.038 246.43 276.304 246.695L316.751 287.257C334.084 304.615 337.127 331.823 324.014 351.993C319.94 358.255 314.526 363.531 308.164 367.438C301.802 371.346 294.652 373.788 287.232 374.588C279.647 375.459 271.964 374.628 264.741 372.155C257.519 369.682 250.936 365.629 245.47 360.291C244.294 359.141 243.215 358.172 242.123 357.174C240.822 355.997 239.356 354.653 237.641 353.018C234.238 349.721 231.762 346.992 230.821 345.967L230.614 345.731C228.94 343.903 226.256 341.063 222.632 337.281C222.326 336.928 221.924 336.669 221.476 336.536C221.027 336.404 220.55 336.403 220.101 336.533C219.609 336.637 219.158 336.878 218.798 337.228C218.438 337.579 218.185 338.025 218.067 338.514L217.984 338.791C217.777 339.498 217.722 339.664 217.68 339.802C214.467 350.202 208.005 359.295 199.244 365.74C190.482 372.184 179.886 375.641 169.016 375.599L169.03 375.571ZM256.716 171.403C254.265 171.393 251.836 171.869 249.569 172.804C247.302 173.738 245.241 175.112 243.506 176.847L151.407 269.082C151.071 269.416 150.806 269.813 150.625 270.251C150.445 270.689 150.353 271.157 150.355 271.631V323.677C150.391 328.854 152.423 333.818 156.027 337.53C157.695 339.316 159.707 340.746 161.942 341.731C164.177 342.717 166.588 343.238 169.03 343.266C173.018 343.284 176.905 342.013 180.116 339.646C183.328 337.278 185.692 333.938 186.86 330.119L187.095 329.329C188.824 323.426 192.072 318.083 196.514 313.835C200.956 309.587 206.435 306.582 212.402 305.125C218.369 303.666 224.614 303.806 230.51 305.528C236.406 307.25 241.746 310.495 245.996 314.936C249.814 318.926 252.567 321.862 254.42 323.871L254.724 324.204C255.541 325.104 257.491 327.224 260.133 329.745C261.516 331.13 262.706 332.169 263.854 333.208C265.002 334.247 266.496 335.619 268.004 337.101C270.06 339.093 272.529 340.604 275.236 341.526C277.944 342.448 280.822 342.759 283.663 342.434C286.342 342.163 288.926 341.293 291.225 339.888C293.523 338.483 295.478 336.579 296.943 334.316C299.272 330.547 300.243 326.092 299.691 321.693C299.141 317.295 297.1 313.218 293.913 310.143L253.438 269.539C246.854 262.93 243.156 253.975 243.156 244.638C243.156 235.301 246.854 226.346 253.438 219.737L269.36 203.792C271.211 201.919 272.673 199.698 273.66 197.256C274.648 194.813 275.142 192.199 275.114 189.565C275.111 187.131 274.62 184.723 273.67 182.484C272.72 180.244 271.329 178.219 269.581 176.529C266.109 173.23 261.503 171.395 256.716 171.403Z" fill="white"/>
<path d="M1477.95 210.81C1477.95 221.823 1475.29 232.148 1469.98 241.785C1464.87 251.422 1456.71 259.19 1445.5 265.09C1434.49 270.99 1420.52 273.94 1403.61 273.94H1369.09V353H1327.79V147.09H1403.61C1419.54 147.09 1433.11 149.843 1444.32 155.35C1455.53 160.857 1463.89 168.428 1469.39 178.065C1475.1 187.702 1477.95 198.617 1477.95 210.81ZM1401.84 240.605C1413.25 240.605 1421.7 238.048 1427.21 232.935C1432.72 227.625 1435.47 220.25 1435.47 210.81C1435.47 190.75 1424.26 180.72 1401.84 180.72H1369.09V240.605H1401.84Z" fill="white"/>
<path d="M1850.65 189.57L1749.47 430.29H1705.51L1740.91 348.87L1675.42 189.57H1721.74L1763.92 303.735L1806.7 189.57H1850.65Z" fill="white"/>
<path d="M1627.68 332.093C1611.25 348.329 1591.2 356.447 1567.52 356.447C1543.85 356.447 1523.79 348.329 1507.37 332.093C1491.15 315.644 1483.05 295.563 1483.05 271.85C1483.05 248.136 1491.15 228.163 1507.37 211.926C1523.79 195.476 1543.85 187.252 1567.52 187.252C1591.2 187.252 1611.25 195.476 1627.68 211.926C1644.11 228.163 1652.32 248.136 1652.32 271.85C1652.32 295.563 1644.11 315.644 1627.68 332.093ZM1536.48 303.574C1544.8 311.905 1555.15 316.071 1567.52 316.071C1579.9 316.071 1590.24 311.905 1598.56 303.574C1606.88 295.243 1611.04 284.667 1611.04 271.85C1611.04 259.032 1606.88 248.458 1598.56 240.125C1590.24 231.794 1579.9 227.628 1567.52 227.628C1555.15 227.628 1544.8 231.794 1536.48 240.125C1528.38 248.458 1524.33 259.032 1524.33 271.85C1524.33 284.667 1528.38 295.243 1536.48 303.574Z" fill="white"/>
<rect x="1616" y="187" width="41" height="169" fill="white"/>
</svg>
