<svg width="216" height="48" viewBox="0 0 216 48" fill="none" xmlns="http://www.w3.org/2000/svg">
<path fill-rule="evenodd" clip-rule="evenodd" d="M0.637207 28.2289V11.393C0.637207 9.71089 1.30493 8.09782 2.49351 6.90837C3.68209 5.71898 5.29402 5.05078 6.97493 5.05078C8.65584 5.05078 10.2678 5.71898 11.4563 6.90837C12.6449 8.09782 13.3127 9.71089 13.3127 11.393V13.7003L13.3969 13.6159C14.5737 12.4473 16.1598 11.7846 17.8175 11.7688C19.4754 11.7532 21.0738 12.3856 22.2725 13.5316C22.8739 14.1113 23.3529 14.8059 23.6811 15.5744C24.0092 16.3429 24.1798 17.1695 24.1828 18.0052C24.1895 18.8661 24.0256 19.7199 23.701 20.5172C23.3765 21.3145 22.8973 22.0397 22.2914 22.6509L20.3141 24.6313C20.281 24.6641 20.2547 24.7034 20.2368 24.7464C20.219 24.7896 20.2097 24.8358 20.2097 24.8825C20.2097 24.9292 20.219 24.9755 20.2368 25.0187C20.2547 25.0616 20.281 25.1008 20.3141 25.1337L25.3416 30.1717C27.4961 32.3276 27.8743 35.7069 26.2442 38.2121C25.7379 38.9898 25.065 39.6452 24.2742 40.1304C23.4834 40.6158 22.5947 40.9192 21.6724 41.0185C20.7297 41.1267 19.7747 41.0234 18.8768 40.7163C17.9789 40.4092 17.1607 39.9058 16.4816 39.2428C16.3554 39.1196 16.2383 39.013 16.1212 38.9065C16.1026 38.8896 16.084 38.8726 16.0654 38.8556C15.9038 38.7094 15.7216 38.5426 15.5083 38.3395C15.1111 37.9549 14.8154 37.6325 14.6841 37.4892C14.6756 37.4799 14.6677 37.4714 14.6606 37.4636L14.6348 37.4345C14.4268 37.2073 14.0933 36.8546 13.6427 36.3848C13.6047 36.341 13.5548 36.3088 13.4991 36.2923C13.4433 36.2759 13.384 36.2758 13.3282 36.292C13.2671 36.3049 13.2109 36.3348 13.1662 36.3784C13.1214 36.4218 13.09 36.4773 13.0754 36.538L13.0651 36.5724C13.0448 36.6413 13.0362 36.6689 13.031 36.6859C13.0295 36.6905 13.0283 36.6943 13.0272 36.698C12.6279 37.9897 11.8246 39.119 10.7357 39.9195C9.64669 40.7199 8.3296 41.1492 6.9784 41.1441L6.98014 41.1406C6.13714 41.1398 5.30321 40.9677 4.52856 40.6349C3.75403 40.3022 3.05493 39.8158 2.47354 39.2049C1.29687 37.999 0.637952 36.3806 0.637207 34.6953V28.2322C0.637207 28.2318 0.637207 28.2314 0.637207 28.2309V28.2289ZM9.30042 17.7184C9.29758 17.6748 9.29614 17.6311 9.29614 17.5872V11.393C9.29614 10.7769 9.05153 10.1861 8.61626 9.75049C8.181 9.31492 7.59055 9.07013 6.97493 9.07013C6.35931 9.07013 5.76886 9.31492 5.33359 9.75049C4.89833 10.1861 4.65372 10.7769 4.65372 11.393V22.3719L9.30042 17.7184ZM16.9908 15.9561C17.2726 15.8401 17.5748 15.781 17.8794 15.7821C18.4743 15.7811 19.0469 16.009 19.4785 16.4188C19.6958 16.6287 19.8686 16.8803 19.9867 17.1585C20.1049 17.4365 20.1659 17.7357 20.1663 18.0379C20.1696 18.3651 20.1082 18.6899 19.9855 18.9931C19.8627 19.2965 19.681 19.5724 19.4509 19.8049L17.4719 21.7854C16.6535 22.6063 16.1939 23.7185 16.1939 24.8781C16.1939 26.0379 16.6535 27.1501 17.4719 27.971L22.5029 33.0142C22.8991 33.3961 23.1525 33.9026 23.2211 34.4489C23.2895 34.9952 23.169 35.5484 22.8795 36.0166C22.6974 36.2977 22.4544 36.5343 22.1686 36.7087C21.883 36.8832 21.5619 36.9912 21.2288 37.0249C20.8757 37.0652 20.5181 37.0267 20.1814 36.912C19.8449 36.7977 19.538 36.6099 19.2825 36.3625C19.095 36.1784 18.9093 36.0081 18.7666 35.879C18.7415 35.8563 18.7162 35.8336 18.6906 35.8106C18.5711 35.7032 18.4458 35.5906 18.3041 35.4489C17.9757 35.1357 17.7333 34.8724 17.6318 34.7606L17.594 34.7193C17.3636 34.4698 17.0214 34.105 16.5468 33.6095C16.0186 33.0579 15.3549 32.6549 14.6219 32.441C13.8891 32.2272 13.1128 32.2098 12.3712 32.3909C11.6295 32.572 10.9484 32.9451 10.3963 33.4727C9.84429 34.0004 9.44053 34.6641 9.22569 35.3972L9.19641 35.4953C9.05128 35.9697 8.7573 36.3846 8.35813 36.6785C7.95896 36.9726 7.47581 37.1303 6.98014 37.1281C6.67661 37.1247 6.37692 37.0601 6.09906 36.9376C5.82133 36.8152 5.57126 36.6377 5.36386 36.4158C4.91594 35.9547 4.66339 35.3381 4.65893 34.6953V28.2308C4.65868 28.172 4.67009 28.1139 4.69254 28.0595C4.71487 28.0051 4.74787 27.9557 4.78954 27.9143L16.2373 16.4584C16.453 16.2429 16.7089 16.0722 16.9908 15.9561Z" fill="#ED395E"/>
<path fill-rule="evenodd" clip-rule="evenodd" d="M13.3196 13.7157C13.3104 12.8542 13.3058 11.9939 13.3058 11.1348L9.29963 14.9924C9.29393 15.9044 9.29108 16.8162 9.29108 17.7282L13.3196 13.7157ZM4.65735 22.4169V19.8359L0.642578 23.697V28.3152L4.65735 22.4169Z" fill="#C62344"/>
<path fill-rule="evenodd" clip-rule="evenodd" d="M48.6931 38.1898H54.6467L46.4307 28.1262L54.4085 18.3011H48.2962L41.4692 27.0521V10.3457H36.3491V38.1898H41.4692V29.1603L48.6931 38.1898ZM64.3563 38.7454C67.2934 38.7454 69.7807 37.7377 71.8182 35.7224C73.8557 33.6805 74.8745 31.1879 74.8745 28.2444C74.8745 25.3007 73.8557 22.8215 71.8182 20.806C69.7807 18.764 67.2934 17.7432 64.3563 17.7432C61.4192 17.7432 58.9319 18.764 56.8944 20.806C54.8833 22.8215 53.8778 25.3007 53.8778 28.2444C53.8778 31.1879 54.8833 33.6805 56.8944 35.7224C58.9319 37.7377 61.4192 38.7454 64.3563 38.7454ZM64.3563 33.7335C62.8216 33.7335 61.5384 33.2164 60.5063 32.1823C59.5008 31.1482 58.998 29.8353 58.998 28.2444C58.998 26.6533 59.5008 25.3407 60.5063 24.3063C61.5384 23.2722 62.8216 22.7551 64.3563 22.7551C65.8909 22.7551 67.1743 23.2722 68.2065 24.3063C69.2384 25.3407 69.7543 26.6533 69.7543 28.2444C69.7543 29.8353 69.2384 31.1482 68.2065 32.1823C67.1743 33.2164 65.8909 33.7335 64.3563 33.7335ZM88.6529 17.7443C90.8227 17.7443 92.6087 18.4735 94.0111 19.9321C95.4401 21.3905 96.1546 23.4059 96.1546 25.9782V38.1898H91.0344V26.6146C91.0344 25.2887 90.6772 24.281 89.9627 23.5916C89.2482 22.8756 88.2957 22.5175 87.1049 22.5175C85.782 22.5175 84.7234 22.9285 83.9296 23.7507C83.1359 24.5728 82.739 25.8057 82.739 27.4499V38.1898H77.6188V10.3457H82.739V20.5286C83.9825 18.6724 85.9539 17.7443 88.6529 17.7443ZM109.115 38.7454C112.052 38.7454 114.54 37.7377 116.578 35.7224C118.616 33.6805 119.634 31.1879 119.634 28.2444C119.634 25.3007 118.616 22.8215 116.578 20.806C114.54 18.764 112.052 17.7432 109.115 17.7432C106.178 17.7432 103.691 18.764 101.654 20.806C99.6425 22.8215 98.637 25.3007 98.637 28.2444C98.637 31.1879 99.6425 33.6805 101.654 35.7224C103.691 37.7377 106.178 38.7454 109.115 38.7454ZM109.115 33.7335C107.581 33.7335 106.297 33.2164 105.265 32.1823C104.26 31.1482 103.757 29.8353 103.757 28.2444C103.757 26.6533 104.26 25.3407 105.265 24.3063C106.297 23.2722 107.581 22.7551 109.115 22.7551C110.651 22.7551 111.933 23.2722 112.965 24.3063C113.997 25.3407 114.513 26.6533 114.513 28.2444C114.513 29.8353 113.997 31.1482 112.965 32.1823C111.933 33.2164 110.651 33.7335 109.115 33.7335ZM127.497 21.722C127.972 20.449 128.754 19.4943 129.838 18.8579C130.949 18.2215 132.18 17.9033 133.529 17.9033V23.6312C131.969 23.4456 130.566 23.7638 129.322 24.5859C128.105 25.4079 127.497 26.7736 127.497 28.6828V38.1898H122.377V18.301H127.497V21.722ZM141.531 23.2327H146.017V18.3003H141.531V12.7314L136.412 14.2828V18.3003V23.2327V31.5063C136.412 34.2376 137.126 36.1337 138.554 37.1945C140.01 38.2552 142.498 38.5867 146.017 38.1889V33.535C145.038 33.588 144.217 33.6012 143.556 33.5747C142.894 33.5217 142.392 33.336 142.047 33.0179C141.704 32.6996 141.531 32.1958 141.531 31.5063V23.2327ZM169.329 20.6674C169.329 22.0345 168.999 23.3161 168.341 24.5124C167.707 25.7086 166.695 26.6729 165.304 27.4052C163.938 28.1376 162.205 28.5038 160.108 28.5038H155.826V38.3176H150.703V12.7578H160.108C162.084 12.7578 163.767 13.0995 165.158 13.7831C166.548 14.4667 167.585 15.4065 168.267 16.6028C168.976 17.799 169.329 19.1539 169.329 20.6674ZM159.888 24.3659C161.304 24.3659 162.352 24.0485 163.035 23.4138C163.719 22.7547 164.06 21.8392 164.06 20.6674C164.06 18.1774 162.669 16.9323 159.888 16.9323H155.826V24.3659H159.888ZM203.009 47.9115L215.56 18.0308H210.108L204.802 32.2021L199.57 18.0308H193.824L201.948 37.8048L197.556 47.9115H203.009ZM186.453 36.9332C184.718 38.1413 182.714 38.7454 180.44 38.7454C177.504 38.7454 175.015 37.7377 172.979 35.7224C170.967 33.6805 169.962 31.1879 169.962 28.2444C169.962 25.3007 170.967 22.8215 172.979 20.806C175.015 18.764 177.504 17.7432 180.44 17.7432C182.714 17.7432 184.718 18.3551 186.453 19.5792V17.7119H191.539V38.69H186.453V36.9332ZM176.589 32.1823C177.621 33.2164 178.905 33.7335 180.44 33.7335C181.975 33.7335 183.258 33.2164 184.29 32.1823C185.322 31.1482 185.838 29.8353 185.838 28.2444C185.838 26.6533 185.322 25.3407 184.29 24.3063C183.258 23.2722 181.975 22.7551 180.44 22.7551C178.905 22.7551 177.621 23.2722 176.589 24.3063C175.585 25.3407 175.082 26.6533 175.082 28.2444C175.082 29.8353 175.585 31.1482 176.589 32.1823Z" fill="#170D2C"/>
</svg>
